<?xml version="1.0" standalone="no"?>
<!DOCTYPE svg PUBLIC "-//W3C//DTD SVG 20010904//EN"
 "http://www.w3.org/TR/2001/REC-SVG-20010904/DTD/svg10.dtd">
<svg version="1.0" xmlns="http://www.w3.org/2000/svg"
 width="1185.000000pt" height="726.000000pt" viewBox="0 0 1185.000000 726.000000"
 preserveAspectRatio="xMidYMid meet">

<g transform="translate(0.000000,726.000000) scale(0.100000,-0.100000)"
fill="#000000" stroke="none">
<path d="M5440 7063 c-14 -2 -54 -13 -90 -25 -220 -71 -380 -207 -475 -403
-75 -156 -100 -313 -72 -455 8 -41 12 -79 9 -84 -3 -5 -319 -7 -774 -3 -422 3
-770 2 -773 -2 -2 -5 -9 -53 -14 -107 -45 -464 -48 -484 -62 -484 -9 0 -232
170 -611 467 -80 62 -114 83 -137 83 -39 0 -47 -16 -55 -110 -4 -41 -15 -154
-26 -250 -11 -96 -34 -305 -50 -465 -17 -159 -37 -348 -45 -420 -27 -242 -54
-500 -60 -570 -3 -38 -10 -99 -16 -135 -5 -36 -16 -132 -24 -215 -8 -82 -21
-215 -30 -295 -8 -80 -24 -230 -35 -335 -11 -104 -25 -230 -31 -280 -11 -98
-41 -384 -64 -615 -8 -80 -20 -182 -26 -227 -13 -101 -4 -127 44 -120 18 2
104 34 192 71 326 137 625 256 641 256 13 0 15 -7 10 -37 -17 -113 -37 -376
-30 -383 7 -7 1241 -15 1470 -10 27 0 28 6 54 275 11 116 22 221 25 235 3 14
12 95 20 180 17 188 40 410 60 585 8 72 17 164 20 205 3 41 12 129 20 195 8
66 19 172 25 235 6 63 15 153 21 200 5 47 16 150 24 230 59 602 70 691 86 701
13 8 738 1 748 -7 3 -3 -16 -205 -49 -514 -28 -263 -43 -402 -60 -575 -11
-104 -26 -253 -35 -330 -8 -77 -24 -225 -35 -330 -11 -104 -29 -275 -40 -380
-11 -104 -30 -278 -41 -385 -11 -107 -26 -251 -34 -320 -8 -69 -15 -143 -15
-166 l0 -41 747 -6 c517 -5 749 -3 754 4 3 6 11 63 18 127 6 64 20 200 31 302
34 313 59 548 75 705 8 83 19 184 25 225 5 41 17 152 25 245 8 94 18 181 20
195 3 14 14 117 26 230 11 113 29 284 39 380 10 96 26 245 34 330 9 85 21 188
28 228 l11 72 378 0 c297 0 379 -3 379 -13 0 -12 -23 -238 -55 -527 -8 -80
-27 -253 -41 -385 -14 -132 -34 -321 -44 -420 -20 -186 -45 -431 -79 -760 -11
-104 -27 -257 -36 -340 -9 -82 -20 -190 -25 -240 -12 -115 -34 -328 -60 -570
-11 -104 -29 -273 -40 -375 -11 -102 -28 -270 -40 -375 -11 -104 -25 -237 -30
-295 -6 -58 -15 -141 -20 -185 -5 -44 -6 -83 -2 -86 4 -4 344 -8 756 -10 658
-4 750 -2 756 11 5 8 13 67 20 130 13 126 31 303 54 535 9 83 22 213 31 290
34 315 55 516 65 630 6 66 15 152 20 190 6 39 17 138 25 220 39 397 54 533 59
565 4 19 13 107 21 195 8 88 20 201 25 250 6 50 19 178 30 285 11 107 27 260
36 340 8 80 24 231 35 335 11 105 29 273 39 375 11 102 29 273 40 380 11 107
29 278 40 380 44 412 60 583 54 589 -3 3 -339 7 -747 9 -408 2 -745 7 -749 11
-4 4 -1 38 7 76 52 245 -39 514 -235 699 -61 57 -103 86 -182 125 -143 70
-210 84 -378 78 -117 -4 -146 -8 -215 -33 -216 -79 -359 -207 -461 -414 l-42
-85 -32 70 c-106 233 -298 396 -534 455 -75 19 -241 26 -316 13z m224 -329
c237 -61 383 -280 347 -521 -6 -41 -18 -87 -26 -104 l-16 -29 -232 0 c-127 0
-316 3 -419 7 l-186 6 -17 41 c-25 62 -30 179 -12 253 25 97 56 153 122 219
122 123 280 169 439 128z m1575 -14 c141 -55 241 -170 282 -327 22 -85 20
-145 -7 -240 -27 -92 7 -86 -448 -78 -230 4 -406 12 -413 17 -38 30 -55 216
-29 313 42 157 169 285 327 330 73 20 215 13 288 -15z m1514 -1060 c9 -8 -55
-531 -129 -1065 -9 -60 -22 -162 -30 -225 -7 -63 -23 -182 -34 -265 -11 -82
-27 -204 -35 -269 -8 -66 -18 -123 -23 -128 -13 -13 -42 2 -42 21 0 9 9 84 20
166 11 83 27 209 35 280 9 72 18 137 20 145 2 8 13 87 24 175 11 88 29 230 41
315 11 85 27 205 34 265 8 61 26 200 41 310 14 110 24 209 23 220 -3 20 -10
20 -592 25 -590 5 -633 8 -574 38 27 14 1207 6 1221 -8z m-5998 -134 c88 -71
186 -150 217 -175 60 -49 79 -78 57 -92 -19 -11 -39 2 -184 119 -325 264 -314
254 -296 276 7 8 20 12 29 8 9 -3 89 -64 177 -136z"/>
<path d="M459 1461 l-24 -19 -3 -315 c-3 -292 -2 -315 15 -336 27 -33 100 -40
133 -13 25 20 25 22 28 196 2 119 7 176 14 176 6 0 37 -25 68 -54 90 -86 128
-85 216 5 26 27 52 49 56 49 4 0 8 -77 8 -170 0 -168 0 -171 25 -195 33 -34
102 -35 133 -2 22 23 22 29 22 338 l0 316 -23 21 c-16 15 -36 22 -62 22 -35 0
-47 -9 -139 -98 -56 -54 -109 -104 -118 -111 -15 -11 -30 0 -126 98 -107 109
-110 111 -154 111 -30 0 -54 -7 -69 -19z"/>
<path d="M1264 1457 c-27 -23 -27 -24 -32 -188 -7 -245 17 -357 93 -434 65
-64 185 -94 300 -74 111 19 177 76 218 187 18 49 21 85 25 262 4 197 3 206
-17 232 -28 35 -78 45 -119 24 -17 -9 -33 -24 -36 -33 -2 -10 -7 -97 -11 -193
-7 -221 -9 -233 -46 -270 -27 -26 -37 -30 -88 -30 -115 0 -142 64 -140 324 l1
170 -26 23 c-36 30 -86 30 -122 0z"/>
<path d="M1972 1452 c-16 -16 -20 -43 -25 -217 -10 -284 -9 -411 4 -438 20
-43 45 -47 313 -47 237 0 255 1 278 20 14 11 28 32 31 47 7 39 -17 91 -48 103
-15 6 -109 10 -210 10 l-184 0 -3 251 c-3 250 -3 251 -27 270 -31 25 -104 26
-129 1z"/>
<path d="M2671 1453 c-12 -10 -24 -35 -28 -55 -11 -73 40 -108 160 -108 l57 0
0 -245 0 -246 25 -24 c18 -19 35 -25 70 -25 79 0 79 2 85 288 l5 247 65 2
c107 5 128 11 145 43 23 44 19 87 -10 115 l-24 25 -264 0 c-237 0 -267 -2
-286 -17z"/>
<path d="M3393 1460 c-44 -18 -47 -39 -51 -356 l-4 -300 25 -30 c21 -24 33
-29 71 -29 34 0 51 6 68 23 23 22 23 25 26 333 l3 310 -30 29 c-30 31 -65 37
-108 20z"/>
<path d="M3659 1459 c-14 -5 -31 -21 -38 -35 -12 -27 -17 -608 -5 -639 8 -19
55 -45 83 -45 33 0 68 21 80 47 7 14 11 88 11 183 0 124 3 160 13 160 7 0 37
-25 67 -55 50 -51 58 -55 100 -55 42 0 50 4 105 60 32 32 62 57 67 54 4 -3 8
-82 8 -175 0 -167 0 -170 25 -194 34 -35 96 -35 130 0 l25 24 0 314 0 314 -23
21 c-17 16 -36 22 -67 22 -41 0 -47 -4 -151 -106 -85 -84 -111 -105 -127 -100
-11 4 -46 36 -77 71 -105 120 -166 156 -226 134z"/>
<path d="M4439 1441 l-24 -19 -3 -316 -3 -316 25 -25 25 -25 266 0 266 0 26
26 c21 22 25 32 20 66 -11 79 -21 82 -245 88 l-197 5 -3 173 c-2 139 0 173 11
178 8 3 101 6 206 7 189 2 193 2 212 26 28 34 25 96 -6 126 l-24 25 -264 0
c-246 0 -266 -1 -288 -19z"/>
<path d="M5175 1450 c-49 -19 -50 -24 -53 -350 l-3 -308 23 -27 24 -27 175 -6
c287 -8 391 28 456 158 41 81 54 162 43 263 -19 169 -98 259 -255 293 -67 15
-377 18 -410 4z m417 -198 c20 -12 43 -38 52 -56 23 -49 21 -149 -4 -201 -31
-64 -64 -77 -201 -83 -113 -5 -117 -4 -129 18 -14 26 -11 316 4 339 7 10 34
12 125 9 99 -3 123 -7 153 -26z"/>
<path d="M5956 1437 c-9 -7 -21 -30 -26 -52 -14 -59 -13 -578 1 -608 22 -50
104 -63 143 -24 22 23 23 27 29 315 6 303 1 354 -33 372 -26 14 -93 12 -114
-3z"/>
<path d="M6495 1428 c-34 -26 -305 -567 -305 -608 0 -87 14 -90 360 -90 181 0
299 4 311 10 10 6 26 24 34 40 14 27 13 33 -4 77 -43 109 -263 546 -285 568
-31 31 -74 32 -111 3z m115 -394 c28 -58 50 -110 50 -115 0 -12 -217 -12 -225
0 -8 14 97 221 113 221 7 0 35 -48 62 -106z"/>
<path d="M9360 1375 c-72 -16 -99 -27 -139 -60 -49 -42 -81 -114 -92 -212 -15
-136 8 -231 75 -301 65 -70 139 -92 309 -92 123 0 161 7 179 34 15 21 8 84
-11 107 -18 23 -27 24 -158 29 -150 5 -175 13 -210 67 -24 37 -24 155 0 200
32 60 55 67 213 72 163 4 179 11 179 82 0 67 -20 77 -165 81 -75 3 -147 0
-180 -7z"/>
<path d="M9794 1359 c-18 -20 -19 -42 -22 -310 l-3 -289 25 -25 25 -25 243 0
c280 0 288 2 288 71 0 46 -12 73 -37 85 -10 4 -97 10 -193 13 l-175 6 -5 233
c-5 217 -6 235 -24 248 -31 22 -99 18 -122 -7z"/>
<path d="M10451 1359 c-22 -21 -22 -24 -19 -238 3 -206 4 -218 27 -263 54
-106 110 -140 237 -146 134 -6 204 23 260 108 44 66 54 128 54 331 0 164 -2
188 -17 202 -44 39 -120 29 -142 -19 -7 -15 -11 -87 -11 -182 0 -86 -5 -174
-10 -194 -15 -52 -51 -78 -111 -78 -63 0 -75 5 -101 48 -21 35 -23 49 -24 207
-1 212 0 200 -26 225 -29 27 -87 27 -117 -1z"/>
<path d="M11143 1374 c-51 -12 -53 -26 -53 -340 l0 -293 26 -20 c25 -19 40
-21 203 -21 150 0 182 3 216 19 89 41 142 127 132 212 -3 26 -12 61 -20 76
-13 24 -13 32 -1 55 39 74 25 175 -32 238 -57 63 -79 69 -275 74 -96 3 -184 2
-196 0z m345 -176 c7 -7 12 -21 12 -33 0 -30 -19 -45 -56 -45 -38 0 -85 -16
-96 -33 -4 -7 -8 -30 -8 -53 0 -53 21 -71 89 -81 60 -9 84 -31 65 -61 -9 -14
-29 -17 -123 -20 -85 -2 -111 0 -112 10 -2 50 3 314 7 320 8 13 208 10 222 -4z"/>
<path d="M4685 1180 c-12 -4 -26 -14 -32 -22 -14 -17 -19 -74 -9 -105 11 -34
74 -53 175 -53 137 0 171 19 171 95 0 49 -13 71 -51 84 -37 13 -224 14 -254 1z"/>
</g>
</svg>
